<svg xmlns="http://www.w3.org/2000/svg" fill="#FFFFFF" viewBox="34 16 356 62">
<path d="M0 0 C3.63 0 7.26 0 11 0 C11 6.93 11 13.86 11 21 C17.6 21 24.2 21 31 21 C31 14.07 31 7.14 31 0 C34.96 0 38.92 0 43 0 C43 17.49 43 34.98 43 53 C39.04 53 35.08 53 31 53 C31 45.74 31 38.48 31 31 C24.4 31 17.8 31 11 31 C11 38.26 11 45.52 11 53 C7.37 53 3.74 53 0 53 C0 35.51 0 18.02 0 0 Z " fill="#FFFFFF" transform="translate(66,21)"/>
<path d="M0 0 C4.8975415 2.52985588 8.75423306 6.9938066 10.44140625 12.25 C11.87807465 19.97927598 11.18133308 26.36062456 7.33203125 33.25 C4.52679218 37.18025683 1.40738004 38.82644624 -3.16796875 40.3515625 C-9.85235237 41.075803 -15.78115472 40.67298442 -21.16796875 36.3515625 C-26.7519616 29.44796934 -27.80058012 23.0648889 -27.16796875 14.3515625 C-26.07601443 8.48105576 -23.48676868 5.18270192 -18.88671875 1.48046875 C-13.70991257 -1.91975167 -5.78298777 -1.72968643 0 0 Z " fill="#FFFFFF" transform="translate(220.16796875,34.6484375)"/>
<path d="M0 0 C3.76916441 2.7326442 6.02501042 5.38753126 7.5 9.8125 C7.65109093 12.02209253 7.74873801 14.23550047 7.81640625 16.44921875 C7.85830078 17.74794922 7.90019531 19.04667969 7.94335938 20.38476562 C7.98316987 21.75650761 8.02288216 23.12825244 8.0625 24.5 C8.10570835 25.88347645 8.14932339 27.26694027 8.19335938 28.65039062 C8.29958028 32.03765719 8.40162358 35.42499799 8.5 38.8125 C6.70866022 38.86641993 4.91686101 38.90525571 3.125 38.9375 C2.12726563 38.96070313 1.12953125 38.98390625 0.1015625 39.0078125 C-2.5 38.8125 -2.5 38.8125 -4.5 36.8125 C-5.16 37.3075 -5.82 37.8025 -6.5 38.3125 C-10.33156779 40.2282839 -13.29158306 40.43691959 -17.5 39.8125 C-21.61092959 38.03732586 -24.23298981 35.67481366 -26.5 31.8125 C-27.26438825 27.98348107 -27.36975008 24.49496737 -25.546875 20.96875 C-22.95914627 17.62763189 -20.45838881 16.04665283 -16.5 14.8125 C-13.38671875 14.6171875 -13.38671875 14.6171875 -10.1875 14.6875 C-9.11886719 14.70554687 -8.05023438 14.72359375 -6.94921875 14.7421875 C-6.14097656 14.76539063 -5.33273437 14.78859375 -4.5 14.8125 C-5.16 12.1725 -5.82 9.5325 -6.5 6.8125 C-9.98809191 7.58280122 -9.98809191 7.58280122 -13.5 8.8125 C-13.83 9.8025 -14.16 10.7925 -14.5 11.8125 C-18.13 11.8125 -21.76 11.8125 -25.5 11.8125 C-25.26099616 5.71790206 -25.26099616 5.71790206 -23.203125 3.26953125 C-16.59437592 -2.30864557 -8.0477398 -2.73048315 0 0 Z " fill="#FFFFFF" transform="translate(362.5,35.1875)"/>
<path d="M0 0 C4.75187012 3.24517959 6.37061322 5.27028304 8.5625 10.75 C8.5625 14.71 8.5625 18.67 8.5625 22.75 C0.6425 22.75 -7.2775 22.75 -15.4375 22.75 C-12.25676864 28.87977452 -12.25676864 28.87977452 -8.0625 29.8125 C-4.00743865 29.74258515 -1.99060762 28.56603278 1.5625 26.75 C4.35485104 27.60321837 5.49107596 28.67857596 7.5625 30.75 C7.5625 32.625 7.5625 32.625 6.5625 34.75 C0.33448443 39.4887075 -4.77981718 40.55666985 -12.4375 39.75 C-18.36537316 37.95522872 -21.95449463 34.76962539 -25.4375 29.75 C-28.45127355 23.362915 -28.47083491 16.16487131 -26.375 9.4375 C-24.51919329 5.12208345 -21.31717063 2.29823821 -17.4375 -0.25 C-11.75999989 -2.14250004 -5.6070216 -2.03891694 0 0 Z " fill="#FFFFFF" transform="translate(280.4375,35.25)"/>
<path d="M0 0 C3.04451287 2.81617441 5.63613904 5.58477809 7.5 9.3125 C7.6393329 13.64853979 7.54254111 17.97330671 7.5 22.3125 C-0.42 22.3125 -8.34 22.3125 -16.5 22.3125 C-13.31926864 28.44227452 -13.31926864 28.44227452 -9.125 29.375 C-5.06993865 29.30508515 -3.05310762 28.12853278 0.5 26.3125 C4.02037919 27.21774036 5.53206294 29.3605944 7.5 32.3125 C1.50111646 37.61383895 -2.77966548 39.81923416 -10.9375 39.625 C-16.46702854 38.95066725 -20.69981629 36.52163585 -24.375 32.375 C-28.64456267 26.22180674 -29.46501373 20.678115 -28.5 13.3125 C-26.51988803 7.4539869 -23.91383832 2.58929688 -18.5 -0.6875 C-12.4658316 -2.69888947 -5.73494967 -2.76506502 0 0 Z " fill="#FFFFFF" transform="translate(143.5,35.6875)"/>
<path d="M0 0 C4.7781578 2.36338988 6.82417515 5.60438864 8.81640625 10.3359375 C8.56640625 13.2734375 8.56640625 13.2734375 7.81640625 15.3359375 C4.51640625 15.3359375 1.21640625 15.3359375 -2.18359375 15.3359375 C-2.64765625 14.129375 -2.64765625 14.129375 -3.12109375 12.8984375 C-3.9469472 10.44513345 -3.9469472 10.44513345 -5.18359375 9.3359375 C-8.09897404 8.83551604 -8.09897404 8.83551604 -11.18359375 9.3359375 C-14.19091523 12.34325898 -14.39268715 15.26050109 -14.49609375 19.3359375 C-14.33337014 24.61242324 -14.33337014 24.61242324 -12.18359375 29.3359375 C-9.33201032 30.46156254 -7.8418702 30.55536298 -4.93359375 29.5859375 C-2.86806414 28.36963484 -2.86806414 28.36963484 -2.18359375 25.3359375 C1.44640625 25.3359375 5.07640625 25.3359375 8.81640625 25.3359375 C7.71319701 31.25315072 6.71816703 34.46012665 1.81640625 38.3359375 C-2.74411482 41.07225014 -8.02451179 40.98888381 -13.18359375 40.3359375 C-18.02683691 38.63896783 -21.42268915 35.63067799 -24.18359375 31.3359375 C-27.05245319 24.00325705 -27.86003181 15.22888627 -24.68359375 7.8359375 C-19.295271 -0.99492479 -9.58061892 -2.91360504 0 0 Z " fill="#FFFFFF" transform="translate(181.18359375,34.6640625)"/>
<path d="M0 0 C3.96 0 7.92 0 12 0 C12 2.97 12 5.94 12 9 C13.98 9 15.96 9 18 9 C18 11.97 18 14.94 18 18 C16.02 18 14.04 18 12 18 C12 25.26 12 32.52 12 40 C14.31 40 16.62 40 19 40 C19 42.97 19 45.94 19 49 C14.19135086 50.60288305 9.82928589 50.77236515 5.1875 48.8125 C1.92145252 46.10634637 0.18214884 43.48186896 -0.34057617 39.22924805 C-0.32486572 38.24996338 -0.30915527 37.27067871 -0.29296875 36.26171875 C-0.28330078 35.19501953 -0.27363281 34.12832031 -0.26367188 33.02929688 C-0.23853516 31.92650391 -0.21339844 30.82371094 -0.1875 29.6875 C-0.17396484 28.56537109 -0.16042969 27.44324219 -0.14648438 26.28710938 C-0.1112138 23.52424771 -0.06192235 20.76237171 0 18 C-1.65 18 -3.3 18 -5 18 C-5 15.03 -5 12.06 -5 9 C-3.35 9 -1.7 9 0 9 C0 6.03 0 3.06 0 0 Z " fill="#FFFFFF" transform="translate(296,25)"/>
<path d="M0 0 C3.63 0 7.26 0 11 0 C11 18.48 11 36.96 11 56 C7.37 56 3.74 56 0 56 C0 37.52 0 19.04 0 0 Z " fill="#FFFFFF" transform="translate(377,18)"/>
<path d="M0 0 C3.3 0 6.6 0 10 0 C11.29935464 2.51712189 12.58954372 5.03829087 13.875 7.5625 C14.42220703 8.61920898 14.42220703 8.61920898 14.98046875 9.69726562 C17.19557219 14.06706059 18.96505146 18.19832015 20 23 C18.875 25.3125 18.875 25.3125 17 28 C15.56375184 31.29299483 14.29337942 34.6487335 13 38 C12.01 40.475 12.01 40.475 11 43 C7.37 43 3.74 43 0 43 C1.18436288 38.99746083 2.738494 35.56712801 4.81958008 31.95288086 C7.92899872 26.56261693 7.92899872 26.56261693 9 20.546875 C8.22758964 18.17697959 7.20805625 16.18241114 6 14 C4.93000812 11.67009269 3.86788448 9.33656035 2.8125 7 C2.28269531 5.88625 1.75289062 4.7725 1.20703125 3.625 C0 1 0 1 0 0 Z " fill="#FFFFFF" transform="translate(36,27)"/>
<path d="M0 0 C3.125 0.4375 3.125 0.4375 5.5 2.1875 C7.954432 7.09636401 7.92058601 12.04758396 7.125 17.4375 C4.86084906 22.14955906 4.86084906 22.14955906 1.25 23.5625 C-1.875 23.4375 -1.875 23.4375 -4.6875 21.5625 C-7.51664753 17.52086067 -8.18469567 14.33403963 -7.875 9.4375 C-6.64121385 4.80861438 -5.08455975 0.77373735 0 0 Z " fill="#000000" transform="translate(211.875,42.5625)"/>
<path d="M0 0 C0.36103152 6.3782235 0.36103152 6.3782235 -1.125 8.9375 C-3.84949899 10.48138276 -5.92891945 10.3267107 -9 10 C-9.66 9.34 -10.32 8.68 -11 8 C-10.9375 5 -10.9375 5 -10 2 C-6.69419699 -0.02021295 -3.81697699 -0.21811297 0 0 Z " fill="#000000" transform="translate(358,56)"/>
<path d="M0 0 C3.0625 0.3125 3.0625 0.3125 4.9375 1.5625 C6.0625 3.3125 6.0625 3.3125 6.0625 7.3125 C1.7725 7.3125 -2.5175 7.3125 -6.9375 7.3125 C-4.19083333 0.44583333 -4.19083333 0.44583333 0 0 Z " fill="#000000" transform="translate(271.9375,42.6875)"/>
<path d="M0 0 C3.0625 0.3125 3.0625 0.3125 4.9375 1.5625 C6.0625 3.3125 6.0625 3.3125 6.0625 7.3125 C1.7725 7.3125 -2.5175 7.3125 -6.9375 7.3125 C-4.19083333 0.44583333 -4.19083333 0.44583333 0 0 Z " fill="#000000" transform="translate(133.9375,42.6875)"/>
</svg>
