<svg xmlns="http://www.w3.org/2000/svg" viewBox="0 0 165 30" fill="#FFFFFF">
  <g transform="translate(0, 3.5) scale(0.06)">
    <path d="M0 0 C3.43722597 2.89886527 6.75295716 5.89033205 10 9 C10.845625 9.804375 11.69125 10.60875 12.5625 11.4375 C13.7690625 12.7059375 13.7690625 12.7059375 15 14 C15.64195312 14.65871094 16.28390625 15.31742188 16.9453125 15.99609375 C40.31737777 40.79328495 49.95546014 72.53870602 51 106 C45.39 106 39.78 106 34 106 C33.79375 104.700625 33.5875 103.40125 33.375 102.0625 C32.00045189 95.96834965 29.1794611 90.49275244 24.19140625 86.58203125 C18.40253353 83.13360599 12.68491446 81.91177184 6.015625 83.4609375 C-0.11058545 85.47926265 -5.24872897 88.64074375 -8.2890625 94.47265625 C-9.84795527 98.28016772 -11.00133627 102.00534509 -12 106 C-17.28 106 -22.56 106 -28 106 C-28.61875 103.710625 -28.61875 103.710625 -29.25 101.375 C-31.26400928 94.7118291 -34.09882701 89.88940947 -40 86 C-46.39630869 82.85582294 -52.16183892 81.89600913 -59.0625 84.1875 C-65.6583589 86.95597462 -69.41107205 90.76232262 -72.17005157 97.26156425 C-73.79086004 102.60946265 -73.56823705 108.05276025 -73.54589844 113.59790039 C-73.5546485 114.94897645 -73.56513925 116.30004218 -73.57722473 117.65109253 C-73.60493061 121.29308894 -73.60849287 124.93474465 -73.60750484 128.5768311 C-73.61064732 132.39255993 -73.6362931 136.2081383 -73.65948486 140.02378845 C-73.69994672 147.23771934 -73.72036238 154.45156006 -73.73345876 161.66558689 C-73.74936219 169.883374 -73.78779177 178.10100838 -73.82805204 186.31870663 C-73.91031654 203.21242543 -73.9644925 220.10611952 -74 237 C-73.33169065 236.99815641 -72.66338129 236.99631283 -71.97482014 236.99441338 C-55.66374567 236.95011753 -39.35269042 236.91708686 -23.04156971 236.89637566 C-15.1534235 236.88609197 -7.26531759 236.8720877 0.62280273 236.84912109 C7.50336861 236.82909769 14.38390528 236.81626246 21.26449949 236.81182301 C24.90291897 236.80923068 28.54125491 236.80319928 32.17964745 236.78853989 C36.25546241 236.77225345 40.33113496 236.772026 44.40698242 236.77294922 C45.59454132 236.76575867 46.78210022 236.75856812 48.00564575 236.75115967 C64.34663317 236.79096932 77.45611125 239.23978631 90 250 C91.06103403 250.89993285 92.12224403 251.79965824 93.18359375 252.69921875 C96.19109575 255.25857739 99.18197346 257.83673122 102.16943359 260.41943359 C105.10573179 262.95472227 108.05324986 265.47687625 111 268 C112.15760963 268.99212036 113.31516151 269.9843081 114.47265625 270.9765625 C115.04902832 271.4705957 115.62540039 271.96462891 116.21923828 272.47363281 C128.74609375 283.2109375 128.74609375 283.2109375 130.34472656 284.58569336 C131.5179588 285.58813205 132.69767987 286.58299897 133.88183594 287.57250977 C134.50219727 288.09385498 135.12255859 288.6152002 135.76171875 289.15234375 C136.32463623 289.62148193 136.88755371 290.09062012 137.4675293 290.57397461 C140.66231795 293.54685345 142.63348322 296.90044967 144 301 C144 305.62 144 310.24 144 315 C198.45 315.495 198.45 315.495 254 316 C254 321.28 254 326.56 254 332 C98.9 332 -56.2 332 -216 332 C-216 326.72 -216 321.44 -216 316 C-195.21 315.67 -174.42 315.34 -153 315 C-153 308.565 -153 302.13 -153 295.5 C-152.979375 293.48455078 -152.95875 291.46910156 -152.9375 289.39257812 C-152.75581155 280.40820018 -152.75581155 280.40820018 -155.70263672 272.16210938 C-157.6989327 270.22748758 -159.75762815 268.63499441 -162 267 C-164.2578125 263.78125 -164.2578125 263.78125 -166.125 260.5 C-166.4856958 259.87601318 -166.8463916 259.25202637 -167.21801758 258.60913086 C-168.03163636 257.2004349 -168.84003646 255.78871586 -169.64404297 254.37451172 C-171.70488308 250.76562967 -173.81155277 247.18380756 -175.91162109 243.59765625 C-178.33792232 239.45086262 -180.75325933 235.29771914 -183.16943359 231.14501953 C-185.53133995 227.08712706 -187.89704217 223.03145753 -190.26367188 218.97631836 C-191.41824866 216.99720622 -192.57189956 215.01755363 -193.72460938 213.03735352 C-196.75953961 207.82587876 -199.81088402 202.62495314 -202.88671875 197.4375 C-203.52287109 196.35984375 -204.15902344 195.2821875 -204.81445312 194.171875 C-206.0280469 192.11673809 -207.24649814 190.06445875 -208.47070312 188.015625 C-213.63154627 179.25489713 -217.84302639 171.26290166 -215.53125 160.8984375 C-213.41200708 154.36410517 -209.38032638 149.15113602 -203.5 145.5625 C-197.09531929 142.71734376 -189.21930901 142.87173541 -182.53125 144.66015625 C-173.61210454 148.6223151 -169.08642835 157.85090265 -164.5 165.9375 C-163.26060983 168.09255902 -162.02102095 170.24750377 -160.78125 172.40234375 C-160.15347656 173.4991748 -159.52570313 174.59600586 -158.87890625 175.72607422 C-155.94752287 180.8339031 -152.9729452 185.91628888 -150 191 C-146.37597206 197.20698082 -142.75679377 203.41670605 -139.1484375 209.6328125 C-138.51679688 210.71949219 -137.88515625 211.80617187 -137.234375 212.92578125 C-136.02709819 215.00300753 -134.82128319 217.08108436 -133.6171875 219.16015625 C-132.09221167 221.78210761 -130.55192769 224.39393275 -129 227 C-128.45134277 227.94117676 -128.45134277 227.94117676 -127.89160156 228.90136719 C-125.7219706 232.43216522 -123.7069154 234.18409823 -120 236 C-116.71800543 236.50009694 -116.71800543 236.50009694 -113.16796875 236.51171875 C-111.87568359 236.54716797 -110.58339844 236.58261719 -109.25195312 236.61914062 C-107.89714066 236.64223681 -106.54232282 236.66501935 -105.1875 236.6875 C-103.81311883 236.72069761 -102.43876829 236.75518953 -101.06445312 236.79101562 C-97.70971766 236.87341264 -94.35524096 236.94259395 -91 237 C-91.01382944 219.30997057 -91.05616916 201.62024727 -91.13209057 183.93037605 C-91.16668668 175.71592387 -91.19208901 167.50163856 -91.19555664 159.28710938 C-91.19860405 152.12406869 -91.21919839 144.96132562 -91.26052457 137.79839981 C-91.28178629 134.00852644 -91.29449071 130.21907543 -91.28615379 126.429142 C-91.27856981 122.85511664 -91.29460979 119.28194397 -91.32806015 115.70807457 C-91.34011571 113.78488223 -91.32776107 111.86158425 -91.31443787 109.93840027 C-91.41541202 102.23373278 -92.65276065 96.45514551 -97 90 C-99.16148385 87.7151254 -99.16148385 87.7151254 -101.5625 86.4375 C-102.30628906 85.98246094 -103.05007812 85.52742188 -103.81640625 85.05859375 C-109.37246584 82.36504787 -115.1368571 82.19334439 -121 84.125 C-127.56439552 86.88560819 -131.65597957 90.4839393 -134.375 97.125 C-135.43280559 100.07765735 -136.23700016 102.94800064 -137 106 C-142.28 106 -147.56 106 -153 106 C-153.4125 104.47375 -153.825 102.9475 -154.25 101.375 C-156.26400928 94.7118291 -159.09882701 89.88940947 -165 86 C-171.39630869 82.85582294 -177.16183892 81.89600913 -184.0625 84.1875 C-190.85472074 87.03839343 -194.41011275 90.95043473 -197.23828125 97.62109375 C-198.24071078 100.55485728 -198.24071078 100.55485728 -199 106 C-204.61 106 -210.22 106 -216 106 C-217.48956812 72.23645585 -202.96486716 38.48258489 -180.5625 13.6875 C-134.13107346 -36.29162509 -53.19977784 -42.64597576 0 0 Z M-106 285 C-106.33 295.23 -106.66 305.46 -107 316 C-101.72 316 -96.44 316 -91 316 C-91 305.77 -91 295.54 -91 285 C-95.95 285 -100.9 285 -106 285 Z M-74 285 C-74 295.23 -74 305.46 -74 316 C-45.62 316 -17.24 316 12 316 C11.67 305.77 11.34 295.54 11 285 C-17.05 285 -45.1 285 -74 285 Z M59 288 C58.97494385 288.63502441 58.9498877 289.27004883 58.92407227 289.92431641 C58.80743211 292.82471542 58.68501607 295.72484349 58.5625 298.625 C58.52318359 299.62402344 58.48386719 300.62304688 58.44335938 301.65234375 C58.40146484 302.62558594 58.35957031 303.59882813 58.31640625 304.6015625 C58.27974854 305.49182129 58.24309082 306.38208008 58.20532227 307.29931641 C57.98336428 310.21881615 57.48134788 313.11191269 57 316 C68.55 316 80.1 316 92 316 C76.67584465 300.53963946 76.67584465 300.53963946 59 288 Z" transform="translate(216, 43)"/>
  </g>
  <text x="31" y="24" font-family="'Inter', 'Helvetica Neue', Arial, sans-serif" font-size="30" font-weight="500" letter-spacing="-0.5">sezona.hr</text>
</svg>
