<svg xmlns="http://www.w3.org/2000/svg" fill="#FFFFFF" viewBox="30 13 252 14">
  <g transform="translate(-30.661 0)">
    <path d="M61.7141 22.3258H63.3081V23.2095C63.3081 24.4402 63.9695 25.0312 66.0839 25.0312H71.359C73.8204 25.0312 74.5523 24.5107 74.5523 22.7053C74.5523 21.1277 73.9288 20.7265 71.809 20.7265H68.5832C63.3948 20.7265 61.6979 20.412 61.6979 17.0832C61.6979 14.2206 63.4002 13.5809 66.9025 13.5809H70.5621C74.78 13.5809 75.8372 14.6544 75.8372 16.8935V17.3272H74.2433C74.2108 15.3321 73.9993 14.9688 69.5428 14.9688H67.7375C64.4574 14.9688 63.2972 15.1423 63.2972 17.2079C63.2972 18.6988 63.7635 19.203 66.42 19.203H71.4512C74.7638 19.203 76.1517 20.1572 76.1517 22.2933V23.1065C76.1517 26.1968 73.6198 26.4191 71.1042 26.4191H66.3875C63.9044 26.4191 61.7196 25.9853 61.7196 23.2421V22.3204L61.7141 22.3258Z" fill="#FFFFFF"></path>
    <path d="M79.0955 18.2814C79.0955 15.1044 80.169 13.5809 83.5683 13.5809H90.8006C94.1999 13.5809 95.2734 15.1098 95.2734 18.2814V21.7186C95.2734 24.8956 94.1999 26.4191 90.8006 26.4191H83.5683C80.169 26.4191 79.0955 24.8902 79.0955 21.7186V18.2814ZM93.5819 17.6416C93.5819 15.4567 92.2644 14.9688 90.6325 14.9688H83.7472C82.1153 14.9688 80.7979 15.4567 80.7979 17.6416V22.3583C80.7979 24.5432 82.1153 25.0312 83.7472 25.0312H90.6325C92.2644 25.0312 93.5819 24.5432 93.5819 22.3583V17.6416Z" fill="#FFFFFF"></path>
    <path d="M98.4775 13.7219H110.448V15.1098H100.18V19.1163H110.052V20.5042H100.18V26.2835H98.4775V13.7219Z" fill="#FFFFFF"></path>
    <path d="M119.036 15.1098H112.687V13.7219H127.087V15.1098H120.738V26.2835H119.036V15.1098Z" fill="#FFFFFF"></path>
    <path d="M128.93 13.7219H130.595L134.986 24.7004L139.291 13.7219H141.476L145.726 24.7547L150.166 13.7219H151.831L146.837 26.2835H144.653L140.386 15.2507L136.119 26.2835H133.934L128.941 13.7219H128.93Z" fill="#FFFFFF"></path>
    <path d="M158.624 13.7219H160.738L168.198 26.2835H166.274L164.712 23.627H154.65L153.089 26.2835H151.164L158.624 13.7219ZM159.681 15.1098L155.463 22.2391H163.894L159.676 15.1098H159.681Z" fill="#FFFFFF"></path>
    <path d="M170.746 13.7219H180.792C184.419 13.7219 184.989 14.92 184.989 17.2784V18.303C184.989 20.0705 183.98 20.5584 182.685 20.6777V20.7102C184.419 21.0247 184.837 21.9246 184.837 23.0686V26.2781H183.243V23.5186C183.243 21.556 182.289 21.3174 180.744 21.3174H172.454V26.2781H170.752V13.7219H170.746ZM180.597 19.9349C182.489 19.9349 183.286 19.4307 183.286 18.1133V16.9694C183.286 15.5652 182.679 15.1152 180.18 15.1152H172.443V19.9404H180.597V19.9349Z" fill="#FFFFFF"></path>
    <path d="M188.155 13.7219H200.489V15.1098H189.857V19.1163H200.077V20.5042H189.857V24.8956H200.559V26.2835H188.155V13.7219Z" fill="#FFFFFF"></path>
    <path d="M202.896 18.1241C202.896 14.4483 204.962 13.5809 208.431 13.5809H214.227C218.597 13.5809 219.204 15.1586 219.204 17.6037V18.0049H215.42C215.42 16.7579 214.71 16.6007 213.479 16.6007H209.299C207.358 16.6007 206.854 17.0669 206.854 19.2193V20.7807C206.854 22.933 207.358 23.3993 209.299 23.3993H213.408C214.417 23.3993 215.42 23.2421 215.42 22.0276V21.6644H210.633V19.0621H219.269V22.6348C219.269 26.2456 217.393 26.4191 213.056 26.4191H208.426C204.956 26.4191 202.891 25.5516 202.891 21.8758V18.1296L202.896 18.1241Z" fill="#FFFFFF"></path>
    <path d="M227.445 13.7219H232.46L239.367 26.2835H235.084L233.885 24.0607H226.078L224.951 26.2835H220.646L227.445 13.7219ZM227.515 21.3554H232.443L229.944 16.6386L227.515 21.3554Z" fill="#FFFFFF"></path>
    <path d="M241.394 13.7219H253.018C255.984 13.7219 256.781 15.1965 256.781 17.4519V18.2488C256.781 19.9295 256.401 20.9216 254.628 21.3391V21.3716C255.772 21.5776 256.726 22.0819 256.726 24.1475V26.2835H252.877V24.7763C252.877 23.4589 252.498 23.0252 251.299 23.0252H245.244V26.289H241.394V13.7219ZM245.244 19.897H251.608C252.649 19.897 253.029 19.4795 253.029 18.5795V18.1621C253.029 17.0507 252.476 16.8447 251.261 16.8447H245.244V19.897Z" fill="#FFFFFF"></path>
    <path d="M265.574 13.7219H270.589L277.496 26.2835H273.213L272.015 24.0607H264.208L263.08 26.2835H258.776L265.574 13.7219ZM265.645 21.3554H270.573L268.074 16.6386L265.645 21.3554Z" fill="#FFFFFF"></path>
    <path d="M278.7 18.1241C278.7 14.4483 280.765 13.5809 284.235 13.5809H290.031C294.401 13.5809 295.008 15.1586 295.008 17.6037V18.0049H291.223C291.223 16.7579 290.513 16.6007 289.283 16.6007H285.103C283.162 16.6007 282.658 17.0669 282.658 19.2193V20.7807C282.658 22.933 283.162 23.3993 285.103 23.3993H289.212C290.221 23.3993 291.223 23.2421 291.223 22.0276V21.6644H286.436V19.0621H295.073V22.6348C295.073 26.2456 293.197 26.4191 288.86 26.4191H284.23C280.76 26.4191 278.694 25.5516 278.694 21.8758V18.1296L278.7 18.1241Z" fill="#FFFFFF"></path>
    <path d="M297.643 13.7219H311.381V16.6386H301.492V18.65H310.86V21.2524H301.492V23.2637H311.608V26.2835H297.643V13.7219Z" fill="#FFFFFF"></path>
  </g>
</svg>